REM DIRINDEX 1\2,1\3,1\4
REM DIRNAME folder01,folder02,folder03,folder04
TITLE ""
FILE "033 033_TOEFL_3900.mp3" MP3
  TRACK 01 AUDIO
    TITLE "2:cjc151_1417"
    INDEX 01 00:00:00
  TRACK 02 AUDIO
    TITLE "0:"
    INDEX 01 00:01:30
  TRACK 03 AUDIO
    TITLE "3:cjc151_1418"
    INDEX 01 00:03:12
  TRACK 04 AUDIO
    TITLE "0:"
    INDEX 01 00:06:55
  TRACK 05 AUDIO
    TITLE "2:cjc151_1419"
    INDEX 01 00:08:34
  TRACK 06 AUDIO
    TITLE "0:"
    INDEX 01 00:09:28
  TRACK 07 AUDIO
    TITLE "3:cjc151_1420"
    INDEX 01 00:11:05
  TRACK 08 AUDIO
    TITLE "0:"
    INDEX 01 00:14:31
  TRACK 09 AUDIO
    TITLE "2:cjc151_1421"
    INDEX 01 00:16:08
  TRACK 10 AUDIO
    TITLE "0:"
    INDEX 01 00:17:10
  TRACK 11 AUDIO
    TITLE "3:cjc151_1422"
    INDEX 01 00:18:68
  TRACK 12 AUDIO
    TITLE "0:"
    INDEX 01 00:22:29
  TRACK 13 AUDIO
    TITLE "2:cjc151_1423"
    INDEX 01 00:24:08
  TRACK 14 AUDIO
    TITLE "0:"
    INDEX 01 00:25:09
  TRACK 15 AUDIO
    TITLE "3:cjc151_1424"
    INDEX 01 00:26:66
  TRACK 16 AUDIO
    TITLE "0:"
    INDEX 01 00:30:59
  TRACK 17 AUDIO
    TITLE "2:cjc151_1425"
    INDEX 01 00:32:39
  TRACK 18 AUDIO
    TITLE "0:"
    INDEX 01 00:33:56
  TRACK 19 AUDIO
    TITLE "3:cjc151_1426"
    INDEX 01 00:35:33
  TRACK 20 AUDIO
    TITLE "0:"
    INDEX 01 00:39:13
  TRACK 21 AUDIO
    TITLE "2:cjc151_1427"
    INDEX 01 00:40:72
  TRACK 22 AUDIO
    TITLE "0:"
    INDEX 01 00:41:55
  TRACK 23 AUDIO
    TITLE "3:cjc151_1428"
    INDEX 01 00:43:42
  TRACK 24 AUDIO
    TITLE "0:"
    INDEX 01 00:47:58
  TRACK 25 AUDIO
    TITLE "2:cjc151_1429"
    INDEX 01 00:49:35
  TRACK 26 AUDIO
    TITLE "0:"
    INDEX 01 00:50:41
  TRACK 27 AUDIO
    TITLE "3:cjc151_1430"
    INDEX 01 00:52:18
  TRACK 28 AUDIO
    TITLE "0:"
    INDEX 01 00:56:51
  TRACK 29 AUDIO
    TITLE "2:cjc151_1431"
    INDEX 01 00:58:28
  TRACK 30 AUDIO
    TITLE "0:"
    INDEX 01 00:59:28
  TRACK 31 AUDIO
    TITLE "3:cjc151_1432"
    INDEX 01 01:01:05
  TRACK 32 AUDIO
    TITLE "0:"
    INDEX 01 01:05:05
  TRACK 33 AUDIO
    TITLE "2:cjc151_1433"
    INDEX 01 01:06:61
  TRACK 34 AUDIO
    TITLE "0:"
    INDEX 01 01:08:03
  TRACK 35 AUDIO
    TITLE "3:cjc151_1434"
    INDEX 01 01:09:56
  TRACK 36 AUDIO
    TITLE "0:"
    INDEX 01 01:14:35
  TRACK 37 AUDIO
    TITLE "2:cjc151_1435"
    INDEX 01 01:16:14
  TRACK 38 AUDIO
    TITLE "0:"
    INDEX 01 01:17:14
  TRACK 39 AUDIO
    TITLE "3:cjc151_1436"
    INDEX 01 01:18:66
  TRACK 40 AUDIO
    TITLE "0:"
    INDEX 01 01:23:01
  TRACK 41 AUDIO
    TITLE "2:cjc151_1437"
    INDEX 01 01:24:63
  TRACK 42 AUDIO
    TITLE "0:"
    INDEX 01 01:26:09
  TRACK 43 AUDIO
    TITLE "3:cjc151_1438"
    INDEX 01 01:27:59
  TRACK 44 AUDIO
    TITLE "0:"
    INDEX 01 01:31:61
  TRACK 45 AUDIO
    TITLE "2:cjc151_1439"
    INDEX 01 01:33:40
  TRACK 46 AUDIO
    TITLE "0:"
    INDEX 01 01:34:59
  TRACK 47 AUDIO
    TITLE "3:cjc151_1440"
    INDEX 01 01:36:39
  TRACK 48 AUDIO
    TITLE "0:"
    INDEX 01 01:40:58
  TRACK 49 AUDIO
    TITLE "2:cjc151_1441"
    INDEX 01 01:42:41
  TRACK 50 AUDIO
    TITLE "0:"
    INDEX 01 01:43:45
  TRACK 51 AUDIO
    TITLE "3:cjc151_1442"
    INDEX 01 01:45:24
  TRACK 52 AUDIO
    TITLE "0:"
    INDEX 01 01:48:61
  TRACK 53 AUDIO
    TITLE "2:cjc151_1443"
    INDEX 01 01:50:41
  TRACK 54 AUDIO
    TITLE "0:"
    INDEX 01 01:51:66
  TRACK 55 AUDIO
    TITLE "3:cjc151_1444"
    INDEX 01 01:53:47
  TRACK 56 AUDIO
    TITLE "0:"
    INDEX 01 01:58:34
  TRACK 57 AUDIO
    TITLE "2:cjc151_1445"
    INDEX 01 02:00:14
  TRACK 58 AUDIO
    TITLE "0:"
    INDEX 01 02:01:17
  TRACK 59 AUDIO
    TITLE "3:cjc151_1446"
    INDEX 01 02:02:73
  TRACK 60 AUDIO
    TITLE "0:"
    INDEX 01 02:06:06
  TRACK 61 AUDIO
    TITLE "2:cjc151_1447"
    INDEX 01 02:07:61
  TRACK 62 AUDIO
    TITLE "0:"
    INDEX 01 02:08:64
  TRACK 63 AUDIO
    TITLE "3:cjc151_1448"
    INDEX 01 02:10:43
  TRACK 64 AUDIO
    TITLE "0:"
    INDEX 01 02:14:57
  TRACK 65 AUDIO
    TITLE "2:cjc151_1449"
    INDEX 01 02:16:36
  TRACK 66 AUDIO
    TITLE "0:"
    INDEX 01 02:17:51
  TRACK 67 AUDIO
    TITLE "3:cjc151_1450"
    INDEX 01 02:19:31
  TRACK 68 AUDIO
    TITLE "0:"
    INDEX 01 02:22:56
  TRACK 69 AUDIO
    TITLE "2:cjc151_1451"
    INDEX 01 02:24:38
  TRACK 70 AUDIO
    TITLE "0:"
    INDEX 01 02:25:35
  TRACK 71 AUDIO
    TITLE "3:cjc151_1452"
    INDEX 01 02:27:16
  TRACK 72 AUDIO
    TITLE "0:"
    INDEX 01 02:31:55
  TRACK 73 AUDIO
    TITLE "2:cjc151_1453"
    INDEX 01 02:33:37
  TRACK 74 AUDIO
    TITLE "0:"
    INDEX 01 02:34:36
  TRACK 75 AUDIO
    TITLE "3:cjc151_1454"
    INDEX 01 02:36:15
  TRACK 76 AUDIO
    TITLE "0:"
    INDEX 01 02:40:70
  TRACK 77 AUDIO
    TITLE "2:cjc151_1455"
    INDEX 01 02:42:49
  TRACK 78 AUDIO
    TITLE "0:"
    INDEX 01 02:43:49
  TRACK 79 AUDIO
    TITLE "3:cjc151_1456"
    INDEX 01 02:45:28
  TRACK 80 AUDIO
    TITLE "0:"
    INDEX 01 02:49:04
  TRACK 81 AUDIO
    TITLE "2:cjc151_1457"
    INDEX 01 02:50:59
  TRACK 82 AUDIO
    TITLE "0:"
    INDEX 01 02:51:72
  TRACK 83 AUDIO
    TITLE "3:cjc151_1458"
    INDEX 01 02:53:51
  TRACK 84 AUDIO
    TITLE "0:"
    INDEX 01 02:57:47
  TRACK 85 AUDIO
    TITLE "2:cjc151_1459"
    INDEX 01 02:59:26
  TRACK 86 AUDIO
    TITLE "0:"
    INDEX 01 03:00:26
  TRACK 87 AUDIO
    TITLE "3:cjc151_1460"
    INDEX 01 03:02:03
  TRACK 88 AUDIO
    TITLE "0:"
    INDEX 01 03:05:45
